<?xml version="1.0" encoding="UTF-8"?>
<svg width="1001px" height="524px" viewBox="0 0 1001 524" version="1.1" xmlns="http://www.w3.org/2000/svg" xmlns:xlink="http://www.w3.org/1999/xlink">
    <title>logo-main</title>
    <g id="Page-1" stroke="none" stroke-width="1" fill="none" fill-rule="evenodd">
        <g id="logo-color" transform="translate(-426, -424)" fill-rule="nonzero">
            <g id="Group" transform="translate(425.1701, 424.2568)">
                <g id="logo-main" transform="translate(0.8503, 0)">
                    <path d="M241.619048,358.659864 C225.04487,358.659864 211.608844,372.09589 211.608844,388.670068 C211.608844,405.244246 225.04487,418.680272 241.619048,418.680272 C258.193226,418.680272 271.629252,405.244246 271.629252,388.670068 C271.629252,372.09589 258.193226,358.659864 241.619048,358.659864 M241.619048,331.622449 C239.51677,331.622449 237.574186,332.744 236.523047,334.564626 C235.471909,336.385251 235.471909,338.628354 236.523047,340.44898 C237.574186,342.269605 239.51677,343.391156 241.619048,343.391156 C243.721325,343.391156 245.663909,342.269605 246.715048,340.44898 C247.766187,338.628354 247.766187,336.385251 246.715048,334.564626 C245.663909,332.744 243.721325,331.622449 241.619048,331.622449 M292.782313,280.457483 C290.680036,280.457483 288.737451,281.579034 287.686313,283.39966 C286.635174,285.220285 286.635174,287.463388 287.686313,289.284014 C288.737451,291.104639 290.680036,292.22619 292.782313,292.22619 C294.88459,292.22619 296.827174,291.104639 297.878313,289.284014 C298.929452,287.463388 298.929452,285.220285 297.878313,283.39966 C296.827174,281.579034 294.88459,280.457483 292.782313,280.457483 M292.782313,382.785714 C289.532474,382.785714 286.897959,385.420229 286.897959,388.670068 C286.897959,391.919907 289.532474,394.554422 292.782313,394.554422 C296.032152,394.554422 298.666667,391.919907 298.666667,388.670068 C298.666667,385.420229 296.032152,382.785714 292.782313,382.785714 M292.782313,307.496599 C276.208135,307.496599 262.772109,320.932625 262.772109,337.506803 C262.772109,354.080981 276.208135,367.517007 292.782313,367.517007 C309.356491,367.517007 322.792517,354.080981 322.792517,337.506803 C322.792517,320.932625 309.356491,307.496599 292.782313,307.496599 M241.619048,256.331633 C225.04487,256.331633 211.608844,269.767659 211.608844,286.341837 C211.608844,302.916015 225.04487,316.352041 241.619048,316.352041 C258.193226,316.352041 271.629252,302.916015 271.629252,286.341837 C271.629252,269.767659 258.193226,256.331633 241.619048,256.331633 M241.619048,229.292517 C239.51677,229.292517 237.574186,230.414068 236.523047,232.234694 C235.471909,234.055319 235.471909,236.298422 236.523047,238.119048 C237.574186,239.939673 239.51677,241.061224 241.619048,241.061224 C243.721325,241.061224 245.663909,239.939673 246.715048,238.119048 C247.766187,236.298422 247.766187,234.055319 246.715048,232.234694 C245.663909,230.414068 243.721325,229.292517 241.619048,229.292517 M292.782313,178.129252 C290.680036,178.129252 288.737451,179.250803 287.686313,181.071428 C286.635174,182.892054 286.635174,185.135157 287.686313,186.955782 C288.737451,188.776408 290.680036,189.897959 292.782313,189.897959 C296.032152,189.897959 298.666667,187.263444 298.666667,184.013605 C298.666667,180.763767 296.032152,178.129252 292.782313,178.129252 M241.619048,154.003401 C225.04487,154.003401 211.608844,167.439427 211.608844,184.013605 C211.608844,200.587783 225.04487,214.02381 241.619048,214.02381 C258.193226,214.02381 271.629252,200.587783 271.629252,184.013605 C271.629252,167.439427 258.193226,154.003401 241.619048,154.003401 M292.782313,205.166667 C276.208135,205.166667 262.772109,218.602693 262.772109,235.176871 C262.772109,251.751049 276.208135,265.187075 292.782313,265.187075 C309.356491,265.187075 322.792517,251.751049 322.792517,235.176871 C322.792517,218.602693 309.356491,205.166667 292.782313,205.166667 M343.947279,358.659864 C327.373101,358.659864 313.937075,372.09589 313.937075,388.670068 C313.937075,405.244246 327.373101,418.680272 343.947279,418.680272 C360.521457,418.680272 373.957483,405.244246 373.957483,388.670068 C373.957483,372.09589 360.521457,358.659864 343.947279,358.659864 M343.947279,331.622449 C341.845002,331.622449 339.902417,332.744 338.851279,334.564626 C337.80014,336.385251 337.80014,338.628354 338.851279,340.44898 C339.902417,342.269605 341.845002,343.391156 343.947279,343.391156 C346.049556,343.391156 347.99214,342.269605 349.043279,340.44898 C350.094418,338.628354 350.094418,336.385251 349.043279,334.564626 C347.99214,332.744 346.049556,331.622449 343.947279,331.622449 M395.112245,280.457483 C393.009968,280.457483 391.067383,281.579034 390.016245,283.39966 C388.965106,285.220285 388.965106,287.463388 390.016245,289.284014 C391.067383,291.104639 393.009968,292.22619 395.112245,292.22619 C397.214522,292.22619 399.157106,291.104639 400.208245,289.284014 C401.259384,287.463388 401.259384,285.220285 400.208245,283.39966 C399.157106,281.579034 397.214522,280.457483 395.112245,280.457483 M395.112245,382.785714 C391.862406,382.785714 389.227891,385.420229 389.227891,388.670068 C389.227891,391.919907 391.862406,394.554422 395.112245,394.554422 C398.362084,394.554422 400.996599,391.919907 400.996599,388.670068 C400.996599,385.420229 398.362084,382.785714 395.112245,382.785714 M395.112245,307.496599 C378.538067,307.496599 365.102041,320.932625 365.102041,337.506803 C365.102041,354.080981 378.538067,367.517007 395.112245,367.517007 C411.686423,367.517007 425.122449,354.080981 425.122449,337.506803 C425.122449,320.932625 411.686423,307.496599 395.112245,307.496599 M343.947279,256.331633 C327.373101,256.331633 313.937075,269.767659 313.937075,286.341837 C313.937075,302.916015 327.373101,316.352041 343.947279,316.352041 C360.521457,316.352041 373.957483,302.916015 373.957483,286.341837 C373.957483,269.767659 360.521457,256.331633 343.947279,256.331633 M343.947279,229.292517 C341.845002,229.292517 339.902417,230.414068 338.851279,232.234694 C337.80014,234.055319 337.80014,236.298422 338.851279,238.119048 C339.902417,239.939673 341.845002,241.061224 343.947279,241.061224 C346.049556,241.061224 347.99214,239.939673 349.043279,238.119048 C350.094418,236.298422 350.094418,234.055319 349.043279,232.234694 C347.99214,230.414068 346.049556,229.292517 343.947279,229.292517 M395.112245,178.129252 C393.009968,178.129252 391.067383,179.250803 390.016245,181.071428 C388.965106,182.892054 388.965106,185.135157 390.016245,186.955782 C391.067383,188.776408 393.009968,189.897959 395.112245,189.897959 C398.362084,189.897959 400.996599,187.263444 400.996599,184.013605 C400.996599,180.763767 398.362084,178.129252 395.112245,178.129252 M343.947279,154.003401 C327.373101,154.003401 313.937075,167.439427 313.937075,184.013605 C313.937075,200.587783 327.373101,214.02381 343.947279,214.02381 C360.521457,214.02381 373.957483,200.587783 373.957483,184.013605 C373.957483,167.439427 360.521457,154.003401 343.947279,154.003401 M446.27551,358.659864 C429.701332,358.659864 416.265306,372.09589 416.265306,388.670068 C416.265306,405.244246 429.701332,418.680272 446.27551,418.680272 C462.849688,418.680272 476.285714,405.244246 476.285714,388.670068 C476.285714,372.09589 462.849688,358.659864 446.27551,358.659864 M446.27551,331.622449 C444.173233,331.622449 442.230649,332.744 441.17951,334.564626 C440.128371,336.385251 440.128371,338.628354 441.17951,340.44898 C442.230649,342.269605 444.173233,343.391156 446.27551,343.391156 C448.377787,343.391156 450.320372,342.269605 451.37151,340.44898 C452.422649,338.628354 452.422649,336.385251 451.37151,334.564626 C450.320372,332.744 448.377787,331.622449 446.27551,331.622449 M446.27551,256.331633 C429.701332,256.331633 416.265306,269.767659 416.265306,286.341837 C416.265306,302.916015 429.701332,316.352041 446.27551,316.352041 C462.849688,316.352041 476.285714,302.916015 476.285714,286.341837 C476.285714,269.767659 462.849688,256.331633 446.27551,256.331633 M446.27551,229.292517 C444.173233,229.292517 442.230649,230.414068 441.17951,232.234694 C440.128371,234.055319 440.128371,236.298422 441.17951,238.119048 C442.230649,239.939673 444.173233,241.061224 446.27551,241.061224 C449.525349,241.061224 452.159864,238.42671 452.159864,235.176871 C452.159864,231.927032 449.525349,229.292517 446.27551,229.292517 M446.27551,154.003401 C435.553897,154.003401 425.646717,159.723314 420.28591,169.008503 C414.925104,178.293693 414.925104,189.733518 420.28591,199.018708 C425.646717,208.303897 435.553897,214.02381 446.27551,214.02381 C456.997124,214.02381 466.904303,208.303897 472.26511,199.018708 C477.625917,189.733518 477.625917,178.293693 472.26511,169.008503 C466.904303,159.723314 456.997124,154.003401 446.27551,154.003401 M395.112245,205.166667 C378.538067,205.166667 365.102041,218.602693 365.102041,235.176871 C365.102041,251.751049 378.538067,265.187075 395.112245,265.187075 C411.686423,265.187075 425.122449,251.751049 425.122449,235.176871 C425.122449,218.602693 411.686423,205.166667 395.112245,205.166667" id="Shape" fill="#2C106A"></path>
                    <path d="M292.591837,204.656463 C276.017659,204.656463 262.581633,218.092489 262.581633,234.666667 C262.581633,251.240845 276.017659,264.676871 292.591837,264.676871 C303.31345,264.676871 313.22063,258.956959 318.581437,249.671769 C323.942243,240.386579 323.942243,228.946754 318.581437,219.661564 C313.22063,210.376375 303.31345,204.656463 292.591837,204.656463 M292.591837,177.619048 C290.48956,177.619048 288.546975,178.740599 287.495837,180.561224 C286.444698,182.38185 286.444698,184.624953 287.495837,186.445578 C288.546975,188.266204 290.48956,189.387755 292.591837,189.387755 C295.841676,189.387755 298.47619,186.75324 298.47619,183.503401 C298.47619,180.253563 295.841676,177.619048 292.591837,177.619048 M343.756803,126.454082 C340.506964,126.454082 337.872449,129.088597 337.872449,132.338435 C337.872449,135.588274 340.506964,138.222789 343.756803,138.222789 C347.006642,138.222789 349.641156,135.588274 349.641156,132.338435 C349.641156,129.088597 347.006642,126.454082 343.756803,126.454082 M343.756803,228.782313 C340.506964,228.782313 337.872449,231.416828 337.872449,234.666667 C337.872449,237.916506 340.506964,240.55102 343.756803,240.55102 C347.006642,240.55102 349.641156,237.916506 349.641156,234.666667 C349.641156,231.416828 347.006642,228.782313 343.756803,228.782313 M343.756803,153.493197 C327.182625,153.493197 313.746599,166.929223 313.746599,183.503401 C313.746599,200.077579 327.182625,213.513605 343.756803,213.513605 C354.478416,213.513605 364.385596,207.793693 369.746403,198.508504 C375.107209,189.223314 375.107209,177.783489 369.746403,168.498299 C364.385596,159.213109 354.478416,153.493197 343.756803,153.493197 M292.591837,102.328231 C276.017659,102.328231 262.581633,115.764257 262.581633,132.338435 C262.581633,148.912613 276.017659,162.348639 292.591837,162.348639 C309.166015,162.348639 322.602041,148.912613 322.602041,132.338435 C322.602041,115.764257 309.166015,102.328231 292.591837,102.328231 M292.591837,75.2891156 C289.341998,75.2891156 286.707483,77.9236306 286.707483,81.1734694 C286.707483,84.4233082 289.341998,87.0578231 292.591837,87.0578231 C295.841676,87.0578231 298.47619,84.4233082 298.47619,81.1734694 C298.47619,77.9236306 295.841676,75.2891156 292.591837,75.2891156 M343.756803,24.1258503 C341.654526,24.1258503 339.711941,25.2474018 338.660803,27.0680272 C337.609664,28.8886526 337.609664,31.1317556 338.660803,32.952381 C339.711941,34.7730064 341.654526,35.8945578 343.756803,35.8945578 C347.006642,35.8945578 349.641156,33.2600429 349.641156,30.0102041 C349.641156,26.7603652 347.006642,24.1258503 343.756803,24.1258503 M292.591837,8.17124146e-14 C276.017659,8.17124146e-14 262.581633,13.436026 262.581633,30.0102041 C262.581633,46.5843821 276.017659,60.0204082 292.591837,60.0204082 C309.166015,60.0204082 322.602041,46.5843821 322.602041,30.0102041 C322.602041,13.436026 309.166015,8.17124146e-14 292.591837,8.17124146e-14 M343.756803,51.1632653 C333.035189,51.1632653 323.12801,56.8831777 317.767203,66.1683672 C312.406397,75.4535567 312.406397,86.893382 317.767203,96.1785716 C323.12801,105.463761 333.035189,111.183673 343.756803,111.183673 C354.478416,111.183673 364.385595,105.463761 369.746402,96.1785716 C375.107209,86.893382 375.107209,75.4535567 369.746402,66.1683672 C364.385595,56.8831777 354.478416,51.1632653 343.756803,51.1632653 M394.920068,204.656463 C378.34589,204.656463 364.909864,218.092489 364.909864,234.666667 C364.909864,251.240845 378.34589,264.676871 394.920068,264.676871 C405.641682,264.676871 415.548861,258.956959 420.909668,249.671769 C426.270475,240.386579 426.270475,228.946754 420.909668,219.661564 C415.548861,210.376375 405.641682,204.656463 394.920068,204.656463 M394.920068,177.619048 C392.817791,177.619048 390.875207,178.740599 389.824068,180.561224 C388.772929,182.38185 388.772929,184.624953 389.824068,186.445578 C390.875207,188.266204 392.817791,189.387755 394.920068,189.387755 C398.169907,189.387755 400.804422,186.75324 400.804422,183.503401 C400.804422,180.253563 398.169907,177.619048 394.920068,177.619048 M446.085034,126.454082 C442.835195,126.454082 440.20068,129.088597 440.20068,132.338435 C440.20068,135.588274 442.835195,138.222789 446.085034,138.222789 C449.334873,138.222789 451.969388,135.588274 451.969388,132.338435 C451.969388,129.088597 449.334873,126.454082 446.085034,126.454082 M446.085034,228.782313 C442.835195,228.782313 440.20068,231.416828 440.20068,234.666667 C440.20068,237.916506 442.835195,240.55102 446.085034,240.55102 C449.334873,240.55102 451.969388,237.916506 451.969388,234.666667 C451.969388,231.416828 449.334873,228.782313 446.085034,228.782313 M446.085034,153.493197 C429.510856,153.493197 416.07483,166.929223 416.07483,183.503401 C416.07483,200.077579 429.510856,213.513605 446.085034,213.513605 C456.806647,213.513605 466.713827,207.793693 472.074634,198.508504 C477.435441,189.223314 477.435441,177.783489 472.074634,168.498299 C466.713827,159.213109 456.806647,153.493197 446.085034,153.493197 M394.920068,102.328231 C378.34589,102.328231 364.909864,115.764257 364.909864,132.338435 C364.909864,148.912613 378.34589,162.348639 394.920068,162.348639 C411.494246,162.348639 424.930272,148.912613 424.930272,132.338435 C424.930272,115.764257 411.494246,102.328231 394.920068,102.328231 M394.920068,75.2891156 C391.670229,75.2891156 389.035714,77.9236306 389.035714,81.1734694 C389.035714,84.4233082 391.670229,87.0578231 394.920068,87.0578231 C398.169907,87.0578231 400.804422,84.4233082 400.804422,81.1734694 C400.804422,77.9236306 398.169907,75.2891156 394.920068,75.2891156 M446.085034,24.1258503 C443.982757,24.1258503 442.040173,25.2474018 440.989034,27.0680272 C439.937896,28.8886526 439.937896,31.1317556 440.989034,32.952381 C442.040173,34.7730064 443.982757,35.8945578 446.085034,35.8945578 C449.334873,35.8945578 451.969388,33.2600429 451.969388,30.0102041 C451.969388,26.7603652 449.334873,24.1258503 446.085034,24.1258503 M394.920068,8.17124146e-14 C378.34589,8.17124146e-14 364.909864,13.436026 364.909864,30.0102041 C364.909864,46.5843821 378.34589,60.0204082 394.920068,60.0204082 C411.494246,60.0204082 424.930272,46.5843821 424.930272,30.0102041 C424.930272,13.436026 411.494246,8.17124146e-14 394.920068,8.17124146e-14 M497.25,204.656463 C486.528387,204.656463 476.621207,210.376375 471.2604,219.661564 C465.899593,228.946754 465.899593,240.386579 471.2604,249.671769 C476.621207,258.956959 486.528387,264.676871 497.25,264.676871 C513.824178,264.676871 527.260204,251.240845 527.260204,234.666667 C527.260204,218.092489 513.824178,204.656463 497.25,204.656463 M497.25,177.619048 C495.147723,177.619048 493.205139,178.740599 492.154,180.561224 C491.102861,182.38185 491.102861,184.624953 492.154,186.445578 C493.205139,188.266204 495.147723,189.387755 497.25,189.387755 C500.499839,189.387755 503.134354,186.75324 503.134354,183.503401 C503.134354,180.253563 500.499839,177.619048 497.25,177.619048 M497.25,102.328231 C486.528387,102.328231 476.621207,108.048144 471.2604,117.333333 C465.899594,126.618523 465.899594,138.058348 471.2604,147.343538 C476.621207,156.628727 486.528387,162.348639 497.25,162.348639 C507.971613,162.348639 517.878793,156.628727 523.2396,147.343538 C528.600406,138.058348 528.600406,126.618523 523.2396,117.333333 C517.878793,108.048144 507.971613,102.328231 497.25,102.328231 M497.25,75.2891156 C494.000161,75.2891156 491.365646,77.9236306 491.365646,81.1734694 C491.365646,84.4233082 494.000161,87.0578231 497.25,87.0578231 C500.499839,87.0578231 503.134354,84.4233082 503.134354,81.1734694 C503.134354,77.9236306 500.499839,75.2891156 497.25,75.2891156 M497.25,0 C486.528387,0 476.621207,5.71991239 471.260401,15.0051019 C465.899594,24.2902914 465.899594,35.7301167 471.260401,45.0153063 C476.621207,54.3004958 486.528387,60.0204082 497.25,60.0204082 C507.971613,60.0204082 517.878793,54.3004958 523.239599,45.0153063 C528.600406,35.7301167 528.600406,24.2902914 523.239599,15.0051019 C517.878793,5.71991239 507.971613,0 497.25,0 M446.085034,51.1632653 C429.510856,51.1632653 416.07483,64.5992913 416.07483,81.1734694 C416.07483,97.7476474 429.510856,111.183673 446.085034,111.183673 C462.659212,111.183673 476.095238,97.7476474 476.095238,81.1734694 C476.095238,64.5992913 462.659212,51.1632653 446.085034,51.1632653 M446.482993,358.756803 C429.908815,358.756803 416.472789,372.192829 416.472789,388.767007 C416.472789,405.341185 429.908815,418.777211 446.482993,418.777211 C463.057171,418.777211 476.493197,405.341185 476.493197,388.767007 C476.493197,372.192829 463.057171,358.756803 446.482993,358.756803 M446.482993,331.719388 C443.233154,331.719388 440.598639,334.353903 440.598639,337.603741 C440.598639,340.85358 443.233154,343.488095 446.482993,343.488095 C449.732832,343.488095 452.367347,340.85358 452.367347,337.603741 C452.367347,334.353903 449.732832,331.719388 446.482993,331.719388 M497.646259,280.554422 C494.39642,280.554422 491.761905,283.188937 491.761905,286.438776 C491.761905,289.688614 494.39642,292.323129 497.646259,292.323129 C500.896097,292.323129 503.530612,289.688614 503.530612,286.438776 C503.530612,283.188937 500.896097,280.554422 497.646259,280.554422 M497.646259,382.882653 C494.39642,382.882653 491.761905,385.517168 491.761905,388.767007 C491.761905,392.016846 494.39642,394.651361 497.646259,394.651361 C499.748536,394.651361 501.69112,393.529809 502.742259,391.709184 C503.793398,389.888558 503.793398,387.645455 502.742259,385.82483 C501.69112,384.004204 499.748536,382.882653 497.646259,382.882653 M497.646259,307.593537 C481.07208,307.593537 467.636054,321.029563 467.636054,337.603741 C467.636054,354.17792 481.07208,367.613946 497.646259,367.613946 C514.220437,367.613946 527.656463,354.17792 527.656463,337.603741 C527.656463,321.029563 514.220437,307.593537 497.646259,307.593537 M446.482993,256.428571 C429.908815,256.428571 416.472789,269.864597 416.472789,286.438776 C416.472789,303.012954 429.908815,316.44898 446.482993,316.44898 C463.057171,316.44898 476.493197,303.012954 476.493197,286.438776 C476.493197,269.864597 463.057171,256.428571 446.482993,256.428571" id="Shape" fill="#2C106A"></path>
                    <path d="M446.482993,229.389456 C444.380716,229.389456 442.438132,230.511007 441.386993,232.331633 C440.335854,234.152258 440.335854,236.395361 441.386993,238.215987 C442.438132,240.036612 444.380716,241.158163 446.482993,241.158163 C448.58527,241.158163 450.527855,240.036612 451.578993,238.215987 C452.630132,236.395361 452.630132,234.152258 451.578993,232.331633 C450.527855,230.511007 448.58527,229.389456 446.482993,229.389456 M497.646259,178.22619 C495.543981,178.22619 493.601397,179.347742 492.550258,181.168367 C491.49912,182.988993 491.49912,185.232096 492.550258,187.052721 C493.601397,188.873347 495.543981,189.994898 497.646259,189.994898 C500.896097,189.994898 503.530612,187.360383 503.530612,184.110544 C503.530612,180.860705 500.896097,178.22619 497.646259,178.22619 M446.482993,154.10034 C435.76138,154.10034 425.8542,159.820252 420.493393,169.105442 C415.132587,178.390632 415.132587,189.830457 420.493393,199.115647 C425.8542,208.400836 435.76138,214.120748 446.482993,214.120748 C457.204607,214.120748 467.111786,208.400836 472.472593,199.115647 C477.8334,189.830457 477.8334,178.390632 472.472593,169.105442 C467.111786,159.820252 457.204607,154.10034 446.482993,154.10034 M497.646259,205.263605 C481.07208,205.263605 467.636054,218.699631 467.636054,235.27381 C467.636054,251.847988 481.07208,265.284014 497.646259,265.284014 C514.220437,265.284014 527.656463,251.847988 527.656463,235.27381 C527.656463,218.699631 514.220437,205.263605 497.646259,205.263605 M548.811224,358.756803 C532.237046,358.756803 518.80102,372.192829 518.80102,388.767007 C518.80102,405.341185 532.237046,418.777211 548.811224,418.777211 C565.385403,418.777211 578.821429,405.341185 578.821429,388.767007 C578.821429,372.192829 565.385403,358.756803 548.811224,358.756803 M548.811224,331.719388 C545.561386,331.719388 542.926871,334.353903 542.926871,337.603741 C542.926871,340.85358 545.561386,343.488095 548.811224,343.488095 C552.061063,343.488095 554.695578,340.85358 554.695578,337.603741 C554.695578,334.353903 552.061063,331.719388 548.811224,331.719388 M599.97619,280.554422 C596.726352,280.554422 594.091837,283.188937 594.091837,286.438776 C594.091837,289.688614 596.726352,292.323129 599.97619,292.323129 C603.226029,292.323129 605.860544,289.688614 605.860544,286.438776 C605.860544,283.188937 603.226029,280.554422 599.97619,280.554422 M599.97619,382.882653 C596.726352,382.882653 594.091837,385.517168 594.091837,388.767007 C594.091837,392.016846 596.726352,394.651361 599.97619,394.651361 C602.078468,394.651361 604.021052,393.529809 605.072191,391.709184 C606.12333,389.888558 606.12333,387.645455 605.072191,385.82483 C604.021052,384.004204 602.078468,382.882653 599.97619,382.882653 M599.97619,307.593537 C583.402012,307.593537 569.965986,321.029563 569.965986,337.603741 C569.965986,354.17792 583.402012,367.613946 599.97619,367.613946 C616.550369,367.613946 629.986395,354.17792 629.986395,337.603741 C629.986395,321.029563 616.550369,307.593537 599.97619,307.593537 M548.811224,256.428571 C532.237046,256.428571 518.80102,269.864597 518.80102,286.438776 C518.80102,303.012954 532.237046,316.44898 548.811224,316.44898 C565.385403,316.44898 578.821429,303.012954 578.821429,286.438776 C578.821429,269.864597 565.385403,256.428571 548.811224,256.428571 M548.811224,229.389456 C546.708947,229.389456 544.766363,230.511007 543.715224,232.331633 C542.664086,234.152258 542.664086,236.395361 543.715224,238.215987 C544.766363,240.036612 546.708947,241.158163 548.811224,241.158163 C550.913502,241.158163 552.856086,240.036612 553.907225,238.215987 C554.958363,236.395361 554.958363,234.152258 553.907225,232.331633 C552.856086,230.511007 550.913502,229.389456 548.811224,229.389456 M599.97619,178.22619 C597.873913,178.22619 595.931329,179.347742 594.88019,181.168367 C593.829052,182.988993 593.829052,185.232096 594.88019,187.052721 C595.931329,188.873347 597.873913,189.994898 599.97619,189.994898 C603.226029,189.994898 605.860544,187.360383 605.860544,184.110544 C605.860544,180.860705 603.226029,178.22619 599.97619,178.22619 M548.811224,154.10034 C538.089611,154.10034 528.182431,159.820252 522.821625,169.105442 C517.460818,178.390632 517.460818,189.830457 522.821625,199.115647 C528.182431,208.400836 538.089611,214.120748 548.811224,214.120748 C559.532838,214.120748 569.440018,208.400836 574.800824,199.115647 C580.161631,189.830457 580.161631,178.390632 574.800824,169.105442 C569.440018,159.820252 559.532838,154.10034 548.811224,154.10034 M651.139456,358.756803 C634.565278,358.756803 621.129252,372.192829 621.129252,388.767007 C621.129252,405.341185 634.565278,418.777211 651.139456,418.777211 C667.713634,418.777211 681.14966,405.341185 681.14966,388.767007 C681.14966,372.192829 667.713634,358.756803 651.139456,358.756803 M651.139456,331.719388 C647.889617,331.719388 645.255102,334.353903 645.255102,337.603741 C645.255102,340.85358 647.889617,343.488095 651.139456,343.488095 C654.389295,343.488095 657.02381,340.85358 657.02381,337.603741 C657.02381,334.353903 654.389295,331.719388 651.139456,331.719388 M651.139456,256.428571 C634.565278,256.428571 621.129252,269.864597 621.129252,286.438776 C621.129252,303.012954 634.565278,316.44898 651.139456,316.44898 C667.713634,316.44898 681.14966,303.012954 681.14966,286.438776 C681.14966,269.864597 667.713634,256.428571 651.139456,256.428571 M651.139456,229.389456 C649.037179,229.389456 647.094594,230.511007 646.043456,232.331633 C644.992317,234.152258 644.992317,236.395361 646.043456,238.215987 C647.094594,240.036612 649.037179,241.158163 651.139456,241.158163 C653.241733,241.158163 655.184317,240.036612 656.235456,238.215987 C657.286595,236.395361 657.286595,234.152258 656.235456,232.331633 C655.184317,230.511007 653.241733,229.389456 651.139456,229.389456 M651.139456,154.10034 C640.417842,154.10034 630.510663,159.820252 625.149856,169.105442 C619.789049,178.390632 619.789049,189.830457 625.149856,199.115647 C630.510663,208.400836 640.417842,214.120748 651.139456,214.120748 C661.861069,214.120748 671.768249,208.400836 677.129056,199.115647 C682.489862,189.830457 682.489862,178.390632 677.129056,169.105442 C671.768249,159.820252 661.861069,154.10034 651.139456,154.10034 M599.97619,205.263605 C583.402012,205.263605 569.965986,218.699631 569.965986,235.27381 C569.965986,251.847988 583.402012,265.284014 599.97619,265.284014 C616.550369,265.284014 629.986395,251.847988 629.986395,235.27381 C629.986395,218.699631 616.550369,205.263605 599.97619,205.263605 M549.943878,462.702381 C539.160289,462.702381 529.195843,468.455356 523.804048,477.794217 C518.412254,487.133079 518.412254,498.63903 523.804048,507.977892 C529.195843,517.316753 539.160289,523.069728 549.943878,523.069728 C560.727466,523.069728 570.691912,517.316753 576.083707,507.977892 C581.475501,498.63903 581.475501,487.133079 576.083707,477.794217 C570.691912,468.455356 560.727466,462.702381 549.943878,462.702381 M549.943878,435.522109 C546.675254,435.522109 544.02551,438.171852 544.02551,441.440476 C544.02551,444.7091 546.675254,447.358844 549.943878,447.358844 C553.212502,447.358844 555.862245,444.7091 555.862245,441.440476 C555.862245,438.171852 553.212502,435.522109 549.943878,435.522109" id="Shape" fill="#2C106A"></path>
                    <path d="M601.389456,384.076531 C598.120832,384.076531 595.471088,386.726274 595.471088,389.994898 C595.471088,393.263522 598.120832,395.913265 601.389456,395.913265 C604.65808,395.913265 607.307823,393.263522 607.307823,389.994898 C607.307823,386.726274 604.65808,384.076531 601.389456,384.076531 M601.389456,486.967687 C599.275027,486.967687 597.321213,488.095721 596.263999,489.926871 C595.206784,491.75802 595.206784,494.014089 596.263999,495.845238 C597.321213,497.676388 599.275027,498.804422 601.389456,498.804422 C603.503885,498.804422 605.457698,497.676388 606.514913,495.845238 C607.572127,494.014089 607.572127,491.75802 606.514913,489.926871 C605.457698,488.095721 603.503885,486.967687 601.389456,486.967687 M601.389456,411.256803 C584.719473,411.256803 571.205782,424.770494 571.205782,441.440476 C571.205782,458.110459 584.719473,471.62415 601.389456,471.62415 C618.059438,471.62415 631.573129,458.110459 631.573129,441.440476 C631.573129,424.770494 618.059438,411.256803 601.389456,411.256803 M549.943878,359.811224 C533.273895,359.811224 519.760204,373.324915 519.760204,389.994898 C519.760204,406.664881 533.273895,420.178571 549.943878,420.178571 C566.61386,420.178571 580.127551,406.664881 580.127551,389.994898 C580.127551,373.324915 566.61386,359.811224 549.943878,359.811224 M549.943878,332.630952 C546.675254,332.630952 544.02551,335.280696 544.02551,338.54932 C544.02551,341.817944 546.675254,344.467687 549.943878,344.467687 C553.212502,344.467687 555.862245,341.817944 555.862245,338.54932 C555.862245,335.280696 553.212502,332.630952 549.943878,332.630952 M601.389456,281.185374 C598.120832,281.185374 595.471088,283.835117 595.471088,287.103741 C595.471088,290.372366 598.120832,293.022109 601.389456,293.022109 C604.65808,293.022109 607.307823,290.372366 607.307823,287.103741 C607.307823,283.835117 604.65808,281.185374 601.389456,281.185374 M549.943878,256.920068 C533.273895,256.920068 519.760204,270.433759 519.760204,287.103741 C519.760204,303.773724 533.273895,317.287415 549.943878,317.287415 C566.61386,317.287415 580.127551,303.773724 580.127551,287.103741 C580.127551,270.433759 566.61386,256.920068 549.943878,256.920068 M601.389456,308.365646 C584.719473,308.365646 571.205782,321.879337 571.205782,338.54932 C571.205782,355.219302 584.719473,368.732993 601.389456,368.732993 C618.059438,368.732993 631.573129,355.219302 631.573129,338.54932 C631.573129,321.879337 618.059438,308.365646 601.389456,308.365646 M652.835034,462.702381 C642.051446,462.702381 632.086999,468.455356 626.695205,477.794217 C621.303411,487.133079 621.303411,498.63903 626.695205,507.977892 C632.086999,517.316753 642.051446,523.069728 652.835034,523.069728 C663.618622,523.069728 673.583069,517.316753 678.974863,507.977892 C684.366657,498.63903 684.366657,487.133079 678.974863,477.794217 C673.583069,468.455356 663.618622,462.702381 652.835034,462.702381 M652.835034,435.522109 C649.56641,435.522109 646.916667,438.171852 646.916667,441.440476 C646.916667,444.7091 649.56641,447.358844 652.835034,447.358844 C656.103658,447.358844 658.753401,444.7091 658.753401,441.440476 C658.753401,438.171852 656.103658,435.522109 652.835034,435.522109 M704.280612,384.076531 C701.011988,384.076531 698.362245,386.726274 698.362245,389.994898 C698.362245,393.263522 701.011988,395.913265 704.280612,395.913265 C707.549236,395.913265 710.19898,393.263522 710.19898,389.994898 C710.19898,386.726274 707.549236,384.076531 704.280612,384.076531 M704.280612,486.967687 C701.011988,486.967687 698.362245,489.61743 698.362245,492.886054 C698.362245,496.154678 701.011988,498.804422 704.280612,498.804422 C707.549236,498.804422 710.19898,496.154678 710.19898,492.886054 C710.19898,489.61743 707.549236,486.967687 704.280612,486.967687 M704.280612,411.256803 C687.61063,411.256803 674.096939,424.770494 674.096939,441.440476 C674.096939,458.110459 687.61063,471.62415 704.280612,471.62415 C720.950595,471.62415 734.464286,458.110459 734.464286,441.440476 C734.464286,424.770494 720.950595,411.256803 704.280612,411.256803 M652.835034,359.811224 C636.165051,359.811224 622.651361,373.324915 622.651361,389.994898 C622.651361,406.664881 636.165051,420.178571 652.835034,420.178571 C669.505017,420.178571 683.018707,406.664881 683.018707,389.994898 C683.018707,373.324915 669.505017,359.811224 652.835034,359.811224 M652.835034,332.630952 C649.56641,332.630952 646.916667,335.280696 646.916667,338.54932 C646.916667,341.817944 649.56641,344.467687 652.835034,344.467687 C656.103658,344.467687 658.753401,341.817944 658.753401,338.54932 C658.753401,335.280696 656.103658,332.630952 652.835034,332.630952 M704.280612,281.185374 C701.011988,281.185374 698.362245,283.835117 698.362245,287.103741 C698.362245,290.372366 701.011988,293.022109 704.280612,293.022109 C707.549236,293.022109 710.19898,290.372366 710.19898,287.103741 C710.19898,283.835117 707.549236,281.185374 704.280612,281.185374 M652.835034,256.920068 C636.165051,256.920068 622.651361,270.433759 622.651361,287.103741 C622.651361,303.773724 636.165051,317.287415 652.835034,317.287415 C669.505017,317.287415 683.018707,303.773724 683.018707,287.103741 C683.018707,270.433759 669.505017,256.920068 652.835034,256.920068 M755.72619,462.702381 C744.942602,462.702381 734.978156,468.455356 729.586361,477.794217 C724.194567,487.133079 724.194567,498.63903 729.586361,507.977892 C734.978156,517.316753 744.942602,523.069728 755.72619,523.069728 C766.509779,523.069728 776.474225,517.316753 781.86602,507.977892 C787.257814,498.63903 787.257814,487.133079 781.86602,477.794217 C776.474225,468.455356 766.509779,462.702381 755.72619,462.702381 M755.72619,435.522109 C752.457566,435.522109 749.807823,438.171852 749.807823,441.440476 C749.807823,444.7091 752.457566,447.358844 755.72619,447.358844 C758.994815,447.358844 761.644558,444.7091 761.644558,441.440476 C761.644558,438.171852 758.994815,435.522109 755.72619,435.522109 M755.72619,359.811224 C739.056208,359.811224 725.542517,373.324915 725.542517,389.994898 C725.542517,406.664881 739.056208,420.178571 755.72619,420.178571 C772.396173,420.178571 785.909864,406.664881 785.909864,389.994898 C785.909864,373.324915 772.396173,359.811224 755.72619,359.811224 M755.72619,332.630952 C752.457566,332.630952 749.807823,335.280696 749.807823,338.54932 C749.807823,341.817944 752.457566,344.467687 755.72619,344.467687 C758.994815,344.467687 761.644558,341.817944 761.644558,338.54932 C761.644558,335.280696 758.994815,332.630952 755.72619,332.630952 M755.72619,256.920068 C739.056208,256.920068 725.542517,270.433759 725.542517,287.103741 C725.542517,303.773724 739.056208,317.287415 755.72619,317.287415 C772.396173,317.287415 785.909864,303.773724 785.909864,287.103741 C785.909864,270.433759 772.396173,256.920068 755.72619,256.920068 M704.280612,308.365646 C687.61063,308.365646 674.096939,321.879337 674.096939,338.54932 C674.096939,355.219302 687.61063,368.732993 704.280612,368.732993 C720.950595,368.732993 734.464286,355.219302 734.464286,338.54932 C734.464286,321.879337 720.950595,308.365646 704.280612,308.365646" id="Shape" fill="#2C106A"></path>
                    <path d="M62.2594553,310.545245 L62.2594553,361.347293 L33.1468273,361.347293 L33.1468273,204.828522 L40.1434144,204.828522 L51.6792505,218.480399 C54.2844838,216.011684 57.1400014,213.685177 60.2458034,211.500876 C63.3516055,209.316576 66.5768615,207.428066 69.9215714,205.835347 C73.2776578,204.254005 76.7531982,203.002583 80.3481925,202.081081 C83.9431868,201.15958 87.5779991,200.698829 91.2526294,200.698829 C99.2162244,200.698829 106.707692,202.126587 113.727032,204.982105 C120.757749,207.848999 126.895405,211.88768 132.140001,217.098146 C137.395974,222.319989 141.542732,228.616917 144.580274,235.988931 C147.617817,243.360945 149.136588,251.529318 149.136588,260.494051 C149.136588,269.80008 147.617817,278.17892 144.580274,285.630569 C141.542732,293.070842 137.395974,299.384836 132.140001,304.572549 C126.895405,309.760262 120.757749,313.724995 113.727032,316.466747 C106.707692,319.219875 99.2162244,320.59644 91.2526294,320.59644 C88.704279,320.59644 86.1786817,320.317714 83.6758376,319.760262 C81.1729934,319.191434 78.704279,318.429204 76.2696942,317.473573 C73.8351095,316.529318 71.4403427,315.454233 69.0853939,314.248317 C66.7190685,313.053777 64.4437557,311.81942 62.2594553,310.545245 M120.143414,260.494051 C120.143414,255.69314 119.381185,251.387111 117.856725,247.575962 C116.343642,243.776189 114.284484,240.550933 111.679251,237.900194 C109.062641,235.249454 105.990968,233.218738 102.464233,231.808044 C98.9374985,230.39735 95.2002972,229.692003 91.2526294,229.692003 C87.293585,229.692003 83.5734485,230.39735 80.0922198,231.808044 C76.5996146,233.218738 73.5450071,235.249454 70.9283973,237.900194 C68.3231641,240.550933 66.2583177,243.776189 64.733858,247.575962 C63.220775,251.387111 62.4642335,255.69314 62.4642335,260.494051 C62.4642335,265.078806 63.220775,269.276758 64.733858,273.087907 C66.2583177,276.899056 68.3231641,280.141377 70.9283973,282.81487 C73.5450071,285.499739 76.5996146,287.58165 80.0922198,289.060603 C83.5734485,290.539557 87.293585,291.279033 91.2526294,291.279033 C95.2002972,291.279033 98.9374985,290.539557 102.464233,289.060603 C105.990968,287.58165 109.062641,285.499739 111.679251,282.81487 C114.284484,280.141377 116.343642,276.899056 117.856725,273.087907 C119.381185,269.276758 120.143414,265.078806 120.143414,260.494051 M194.017134,255.732958 L194.017134,318.173231 L165.12635,318.173231 L165.12635,204.828522 L172.105872,204.828522 L181.645121,218.27562 C186.298136,214.043539 191.588238,210.778465 197.515428,208.480399 C203.442618,206.193709 209.580274,205.050365 215.928397,205.050365 L241.423278,205.050365 L241.423278,233.821696 L215.928397,233.821696 C212.890855,233.821696 210.029649,234.384836 207.34478,235.511115 C204.671287,236.648772 202.34478,238.201673 200.365257,240.169818 C198.397112,242.149341 196.844211,244.481536 195.706554,247.166405 C194.580274,249.839898 194.017134,252.695416 194.017134,255.732958 M364.392561,260.494051 C364.392561,268.958214 362.87379,276.842173 359.836247,284.145928 C356.810081,291.449682 352.686076,297.763675 347.464233,303.087907 C342.24239,308.412139 336.121799,312.610091 329.102459,315.681764 C322.083119,318.753436 314.551833,320.289272 306.508602,320.289272 C298.533631,320.289272 291.036475,318.753436 284.017134,315.681764 C276.997794,312.610091 270.860138,308.412139 265.604165,303.087907 C260.348193,297.763675 256.207123,291.449682 253.180957,284.145928 C250.143414,276.842173 248.624643,268.958214 248.624643,260.494051 C248.624643,251.881991 250.143414,243.90702 253.180957,236.569136 C256.207123,229.242628 260.348193,222.91157 265.604165,217.575962 C270.860138,212.25173 276.997794,208.076531 284.017134,205.050365 C291.036475,202.012822 298.533631,200.494051 306.508602,200.494051 C314.551833,200.494051 322.083119,201.921809 329.102459,204.777327 C336.121799,207.632845 342.24239,211.68859 347.464233,216.944562 C352.686076,222.200535 356.810081,228.514528 359.836247,235.886542 C362.87379,243.258556 364.392561,251.461058 364.392561,260.494051 M335.296998,260.494051 C335.296998,255.841036 334.534768,251.626019 333.010309,247.848999 C331.497226,244.07198 329.438067,240.823971 326.832834,238.104972 C324.216224,235.39735 321.161617,233.321127 317.669012,231.876303 C314.176406,230.420103 310.45627,229.692003 306.508602,229.692003 C302.560934,229.692003 298.840798,230.420103 295.348193,231.876303 C291.855587,233.321127 288.818045,235.39735 286.235565,238.104972 C283.664461,240.823971 281.639433,244.07198 280.160479,247.848999 C278.681526,251.626019 277.942049,255.841036 277.942049,260.494051 C277.942049,264.862651 278.681526,268.918396 280.160479,272.661286 C281.639433,276.404176 283.664461,279.652185 286.235565,282.405313 C288.818045,285.147065 291.855587,287.314301 295.348193,288.90702 C298.840798,290.488362 302.560934,291.279033 306.508602,291.279033 C310.45627,291.279033 314.176406,290.539557 317.669012,289.060603 C321.161617,287.58165 324.216224,285.499739 326.832834,282.81487 C329.438067,280.141377 331.497226,276.899056 333.010309,273.087907 C334.534768,269.276758 335.296998,265.078806 335.296998,260.494051 M524.49495,246.210774 L524.49495,318.173231 L495.723619,318.173231 L495.723619,246.210774 C495.723619,244.231252 495.353881,242.359807 494.614404,240.59644 C493.863551,238.833072 492.822595,237.280171 491.491537,235.937737 C490.149103,234.595302 488.596202,233.554346 486.832834,232.81487 C485.069467,232.075393 483.198022,231.705655 481.2185,231.705655 C479.238978,231.705655 477.384598,232.075393 475.65536,232.81487 C473.937499,233.554346 472.424415,234.595302 471.116111,235.937737 C469.807806,237.280171 468.783915,238.833072 468.044438,240.59644 C467.304962,242.359807 466.935223,244.231252 466.935223,246.210774 L466.935223,318.173231 L438.044438,318.173231 L438.044438,246.210774 C438.044438,244.231252 437.6747,242.359807 436.935223,240.59644 C436.195747,238.833072 435.154791,237.280171 433.812356,235.937737 C432.469922,234.595302 430.917021,233.554346 429.153653,232.81487 C427.390286,232.075393 425.518841,231.705655 423.539319,231.705655 C421.571173,231.705655 419.722481,232.075393 417.993244,232.81487 C416.264006,233.554346 414.745235,234.595302 413.43693,235.937737 C412.128625,237.280171 411.104734,238.833072 410.365257,240.59644 C409.625781,242.359807 409.256042,244.231252 409.256042,246.210774 L409.256042,318.173231 L380.365257,318.173231 L380.365257,204.828522 L387.361844,204.828522 L395.194609,213.514528 C399.210536,210.124312 403.63602,207.496326 408.471059,205.630569 C413.306099,203.753436 418.328852,202.81487 423.539319,202.81487 C428.840798,202.81487 434.011446,203.804631 439.051264,205.784153 C444.091082,207.763675 448.516566,211.182333 452.327715,216.040126 C454.091082,213.651047 456.104734,211.608954 458.36867,209.913846 C460.62123,208.218738 462.998932,206.842173 465.501776,205.784153 C468.00462,204.726132 470.598477,203.969591 473.283346,203.514528 C475.968215,203.048089 478.613266,202.81487 481.2185,202.81487 C487.213949,202.81487 492.83966,203.946838 498.095633,206.210774 C503.351605,208.463334 507.936361,211.546383 511.849899,215.459921 C515.763437,219.384836 518.852174,223.992344 521.116111,229.282446 C523.36867,234.572549 524.49495,240.215325 524.49495,246.210774 M574.665599,310.545245 L574.665599,361.347293 L545.552971,361.347293 L545.552971,204.828522 L552.549558,204.828522 L564.085394,218.480399 C566.690627,216.011684 569.546145,213.685177 572.651947,211.500876 C575.757749,209.316576 578.983005,207.428066 582.327715,205.835347 C585.683801,204.254005 589.159342,203.002583 592.754336,202.081081 C596.34933,201.15958 599.984142,200.698829 603.658773,200.698829 C611.633744,200.698829 619.1309,202.126587 626.15024,204.982105 C633.16958,207.848999 639.307237,211.88768 644.56321,217.098146 C649.819182,222.319989 653.960252,228.616917 656.986418,235.988931 C660.02396,243.360945 661.542732,251.529318 661.542732,260.494051 C661.542732,269.80008 660.02396,278.17892 656.986418,285.630569 C653.960252,293.070842 649.819182,299.384836 644.56321,304.572549 C639.307237,309.760262 633.16958,313.724995 626.15024,316.466747 C619.1309,319.219875 611.633744,320.59644 603.658773,320.59644 C601.121799,320.59644 598.596202,320.317714 596.081981,319.760262 C593.579137,319.191434 591.110422,318.429204 588.675838,317.473573 C586.241253,316.529318 583.846486,315.454233 581.491537,314.248317 C579.125212,313.053777 576.849899,311.81942 574.665599,310.545245 M632.549558,260.494051 C632.549558,255.69314 631.787328,251.387111 630.262868,247.575962 C628.749785,243.776189 626.690627,240.550933 624.085394,237.900194 C621.468784,235.249454 618.397112,233.218738 614.870377,231.808044 C611.343642,230.39735 607.606441,229.692003 603.658773,229.692003 C599.711105,229.692003 595.990968,230.39735 592.498363,231.808044 C589.005758,233.218738 585.95115,235.249454 583.334541,237.900194 C580.729307,240.550933 578.664461,243.776189 577.140001,247.575962 C575.626918,251.387111 574.870377,255.69314 574.870377,260.494051 C574.870377,265.078806 575.626918,269.276758 577.140001,273.087907 C578.664461,276.899056 580.729307,280.141377 583.334541,282.81487 C585.95115,285.499739 589.005758,287.58165 592.498363,289.060603 C595.990968,290.539557 599.711105,291.279033 603.658773,291.279033 C607.606441,291.279033 611.343642,290.539557 614.870377,289.060603 C618.397112,287.58165 621.468784,285.499739 624.085394,282.81487 C626.690627,280.141377 628.749785,276.899056 630.262868,273.087907 C631.787328,269.276758 632.549558,265.078806 632.549558,260.494051 M706.628056,159.743197 L706.628056,318.173231 L677.515428,318.173231 L677.515428,159.743197 L706.628056,159.743197 Z M762.703141,174.026474 C762.703141,176.699966 762.191196,179.20281 761.167305,181.535006 C760.143414,183.867202 758.749785,185.89223 756.986418,187.610091 C755.22305,189.339329 753.163892,190.715894 750.808943,191.739784 C748.442618,192.763675 745.917021,193.27562 743.232152,193.27562 C740.558659,193.27562 738.03875,192.763675 735.672425,191.739784 C733.306099,190.715894 731.258318,189.339329 729.52908,187.610091 C727.799842,185.89223 726.423278,183.867202 725.399387,181.535006 C724.375496,179.20281 723.863551,176.699966 723.863551,174.026474 C723.863551,171.409864 724.375496,168.918396 725.399387,166.552071 C726.423278,164.197122 727.799842,162.155029 729.52908,160.425791 C731.258318,158.696553 733.306099,157.319989 735.672425,156.296098 C738.03875,155.272208 740.558659,154.760262 743.232152,154.760262 C745.917021,154.760262 748.442618,155.272208 750.808943,156.296098 C753.163892,157.319989 755.22305,158.696553 756.986418,160.425791 C758.749785,162.155029 760.143414,164.197122 761.167305,166.552071 C762.191196,168.918396 762.703141,171.409864 762.703141,174.026474 M757.737271,204.811457 L757.737271,318.156167 L728.624643,318.156167 L728.624643,204.811457 L757.737271,204.811457 Z M816.457408,233.616917 L816.457408,318.173231 L787.566623,318.173231 L787.566623,233.616917 L773.505189,233.616917 L773.505189,204.828522 L787.566623,204.828522 L787.566623,199.43603 C787.566623,192.45082 788.891992,185.886542 791.542732,179.743197 C794.193471,173.611229 797.828284,168.269932 802.447169,163.719306 C807.066054,159.168681 812.44148,155.567998 818.573448,152.917259 C824.716793,150.277896 831.281071,148.958214 838.266281,148.958214 L859.955701,148.958214 L859.955701,177.74661 L838.266281,177.74661 C835.160479,177.74661 832.282208,178.292685 829.631469,179.384836 C826.992106,180.476986 824.699728,181.990069 822.754336,183.924085 C820.82032,185.869477 819.290172,188.161855 818.163892,190.801218 C817.026236,193.451957 816.457408,196.330228 816.457408,199.43603 L816.457408,204.828522 L851.918158,204.828522 L851.918158,233.616917 L816.457408,233.616917 Z M907.686076,361.552071 L892.87379,361.347293 L892.87379,332.234665 L908.948875,332.456508 C911.770263,332.456508 914.489262,331.995757 917.105872,331.074255 C919.711105,330.16413 922.122937,328.895643 924.341367,327.268795 C926.571173,325.641946 928.533631,323.719306 930.228739,321.500876 C931.91247,319.282446 933.283346,316.864927 934.341367,314.248317 C931.167305,315.590751 927.942049,316.933186 924.665599,318.27562 C921.389148,319.618055 918.089945,320.289272 914.767988,320.289272 C907.782777,320.289272 901.224188,319.054915 895.09222,316.586201 C888.948875,314.117486 883.56776,310.607816 878.948875,306.05719 C874.32999,301.506565 870.695178,295.966178 868.044438,289.43603 C865.405075,282.905882 864.085394,275.585063 864.085394,267.473573 L864.085394,204.828522 L892.87379,204.828522 L892.87379,267.473573 C892.87379,271.500876 893.453995,275.010547 894.614404,278.002583 C895.774814,281.005996 897.34478,283.514528 899.324302,285.52818 C901.303824,287.530456 903.613266,289.026474 906.252629,290.016235 C908.903369,291.005996 911.741822,291.500876 914.767988,291.500876 C917.737271,291.500876 920.541594,290.812594 923.180957,289.43603 C925.831697,288.059466 928.141139,286.244904 930.109285,283.992344 C932.088807,281.728408 933.641708,279.168681 934.767988,276.313163 C935.894268,273.457646 936.457408,270.511115 936.457408,267.473573 L936.457408,204.828522 L965.570036,204.828522 L965.570036,303.87289 C965.501776,311.847862 963.948875,319.327953 960.911332,326.313163 C957.87379,333.298374 953.727032,339.4019 948.471059,344.623743 C943.215087,349.845586 937.094495,353.969591 930.109285,356.995757 C923.135451,360.0333 915.661048,361.552071 907.686076,361.552071" id="text-with-selected-fonts" fill="#FFFFFF"></path>
                </g>
            </g>
        </g>
    </g>
</svg>